<svg id="Groupe_1309" data-name="Groupe 1309" xmlns="http://www.w3.org/2000/svg" xmlns:xlink="http://www.w3.org/1999/xlink" width="31.414" height="14.835" viewBox="0 0 31.414 14.835">
  <defs>
    <clipPath id="clip-path">
      <rect id="Rectangle_2045" data-name="Rectangle 2045" width="31.414" height="14.835" transform="translate(0 0)" fill="none"/>
    </clipPath>
  </defs>
  <g id="Groupe_1308" data-name="Groupe 1308" transform="translate(0 0)" clip-path="url(#clip-path)">
    <path id="Tracé_19727" data-name="Tracé 19727" d="M.56,6.862c-.489,0-.837.634-.261,1.12H29.66l-5.1,5.938a.556.556,0,0,0,.84.728l5.882-6.862a.579.579,0,0,0,0-.728L25.4.2a.541.541,0,0,0-.42-.2.59.59,0,0,0-.364.14.568.568,0,0,0-.056.784l5.1,5.938Z" transform="translate(0 0)"/>
  </g>
</svg>
